<?xml version="1.0" encoding="utf-8"?>
<!-- Generator: Adobe Illustrator 25.2.0, SVG Export Plug-In . SVG Version: 6.00 Build 0)  -->
<svg version="1.1" id="Group_262" xmlns="http://www.w3.org/2000/svg" xmlns:xlink="http://www.w3.org/1999/xlink" x="0px" y="0px"
	 viewBox="0 0 136.1 59.4" style="enable-background:new 0 0 136.1 59.4;" xml:space="preserve">
<style type="text/css">
	.st0{enable-background:new    ;}
	.st1{fill:#003264;}
	.st2{fill:url(#SVGID_1_);}
</style>
<g class="st0">
	<path class="st1" d="M95.6,40.4c-0.8,0.4-2.7,0.8-5.1,0.8c-6.8,0-10.3-4.2-10.3-9.9c0-6.7,4.8-10.5,10.8-10.5
		c2.3,0,4.1,0.5,4.9,0.9l-0.9,3.5c-0.9-0.4-2.2-0.7-3.8-0.7c-3.5,0-6.3,2.1-6.3,6.5c0,4,2.3,6.4,6.3,6.4c1.3,0,2.8-0.3,3.7-0.6
		L95.6,40.4z"/>
	<path class="st1" d="M115.2,33.4c-0.1-2.4-0.2-5.2-0.2-8.1H115c-0.6,2.5-1.4,5.3-2.2,7.7l-2.4,7.7h-3.5l-2.1-7.7
		c-0.6-2.3-1.3-5.1-1.8-7.7h-0.1c-0.1,2.7-0.2,5.7-0.4,8.2l-0.4,7.5h-4.1l1.3-19.8h6l1.9,6.6c0.6,2.3,1.2,4.7,1.7,7.1h0.1
		c0.6-2.3,1.2-4.9,1.9-7.1l2.1-6.6h5.8l1.1,19.8h-4.4L115.2,33.4z"/>
	<path class="st1" d="M122.6,41v-2.7l2.5-2.2c4.2-3.7,6.2-5.9,6.2-8.1c0-1.6-0.9-2.8-3.1-2.8c-1.6,0-3.1,0.8-4.1,1.6l-1.3-3.2
		c1.4-1.1,3.7-2,6.2-2c4.3,0,6.7,2.5,6.7,6c0,3.2-2.3,5.7-5.1,8.2l-1.8,1.5v0.1h7.2V41H122.6z"/>
</g>
<linearGradient id="SVGID_1_" gradientUnits="userSpaceOnUse" x1="3.0234" y1="31.1158" x2="65.4469" y2="31.1158" gradientTransform="matrix(1 0 0 -1 0 60.7874)">
	<stop  offset="0" style="stop-color:#EA7646"/>
	<stop  offset="0.1" style="stop-color:#EA7B46"/>
	<stop  offset="0.2" style="stop-color:#EB7F46"/>
	<stop  offset="0.3" style="stop-color:#EB8446"/>
	<stop  offset="0.4" style="stop-color:#EC8846"/>
	<stop  offset="0.5" style="stop-color:#EC8D47"/>
	<stop  offset="0.6" style="stop-color:#ED9247"/>
	<stop  offset="0.7" style="stop-color:#EE9647"/>
	<stop  offset="0.8" style="stop-color:#EE9B47"/>
	<stop  offset="0.9" style="stop-color:#EFA047"/>
	<stop  offset="1" style="stop-color:#EFA447"/>
</linearGradient>
<path class="st2" d="M65.8,45.4H53.7l5.5-5.8c1.7-1.7,3.2-3.5,4.5-5.6c0.8-1.4,1.2-3,1.2-4.6c0.1-2.6-1-5.2-3-6.9
	c-1.9-1.7-4.4-2.6-7-2.5c-2.3-0.1-4.6,0.5-6.6,1.7c-1.9,1.3-3.5,3.1-4.7,5.1l5.5,3.3c1.7-2.8,3.6-4.1,5.5-4.1c1,0,1.9,0.3,2.6,1
	c0.7,0.7,1,1.6,1,2.6c0,1.2-0.5,2.3-1.2,3.2c-1.2,1.6-2.5,3-3.9,4.4l-8.9,9.1c-0.5,0.4-1.1,0.9-1.8,1.4V23.3H13.5v21.2
	c-7.6-7-8-20.3-1.3-28.8c3.4-4.5,8.5-7.4,14-8.2c7.4-1.2,14.9,1.4,19.9,6.9l5-4.9C46.8,3.5,38.2,0,29.6,0c-4.2,0-8.3,0.8-12.1,2.6
	c-13,5.8-20,20.1-16.7,33.9c2.4,10.2,12.8,21.1,20.3,21V30.9h3.1v22.2c0,6.5,0,6.5,6.6,6.1c0.4-0.1,0.7-0.2,1.1-0.3V30.7l3.2,0.2
	v27.9c5.5-0.9,10.6-3.4,14.7-7.2H66v-6.2H65.8z"/>
</svg>
